<svg xmlns="http://www.w3.org/2000/svg" width="62.031" height="49" viewBox="0 0 62.031 49">
  <metadata><?xpacket begin="﻿" id="W5M0MpCehiHzreSzNTczkc9d"?>
<x:xmpmeta xmlns:x="adobe:ns:meta/" x:xmptk="Adobe XMP Core 5.6-c138 79.159824, 2016/09/14-01:09:01        ">
   <rdf:RDF xmlns:rdf="http://www.w3.org/1999/02/22-rdf-syntax-ns#">
      <rdf:Description rdf:about=""/>
   </rdf:RDF>
</x:xmpmeta>
                                                                                                    
                                                                                                    
                                                                                                    
                                                                                                    
                                                                                                    
                                                                                                    
                                                                                                    
                                                                                                    
                                                                                                    
                                                                                                    
                                                                                                    
                                                                                                    
                                                                                                    
                                                                                                    
                                                                                                    
                                                                                                    
                                                                                                    
                                                                                                    
                                                                                                    
                                                                                                    
                           
<?xpacket end="w"?></metadata>
<defs>
    <style>
      .cls-1 {
        fill: #fff;
        fill-rule: evenodd;
      }
    </style>
  </defs>
  <path class="cls-1" d="M279.547,2251.2h-2.2a9.632,9.632,0,0,0-4.145-7.54c-0.129-.18-0.259-0.35-0.388-0.52h-0.259q-0.13-.195-0.259-0.39h-0.26c-0.043-.09-0.086-0.18-0.129-0.26-0.13-.05-0.259-0.09-0.389-0.13v-0.13h-0.259c-0.043-.09-0.086-0.18-0.129-0.26-0.173-.05-0.346-0.09-0.518-0.13-0.044-.09-0.087-0.18-0.13-0.26h-0.259v-0.13h-0.259v-0.13H269.7v-0.13h-0.259v-0.13h-0.259v-0.13h-0.259v-0.13h-0.259v-0.13c-0.259-.09-0.518-0.18-0.777-0.26v-0.13H267.5v-0.13c-0.173-.05-0.345-0.09-0.518-0.13v-0.13c-0.259-.05-0.518-0.09-0.777-0.14v-0.13h-0.259v-0.13c-0.432-.08-0.864-0.17-1.3-0.26v-0.13h-0.388v-0.13h-0.389v-0.13c-1.6-.34-3.2-0.69-4.792-1.04h-0.907v-0.13h-1.036v-0.13h-1.425v-0.13h-2.332v-0.13a9.371,9.371,0,0,0-2.979.13h-2.331v0.13c-0.821.05-1.641,0.09-2.462,0.13q-2.589.525-5.181,1.04v0.13c-0.431.09-.863,0.18-1.3,0.26v0.13h-0.389v0.13h-0.388v0.13h-0.389v0.13H237.58v0.13h-0.259v0.14c-0.259.04-.519,0.08-0.778,0.13v0.13h-0.259v0.13c-0.215.04-.431,0.08-0.647,0.13v0.13c-0.259.08-.518,0.17-0.777,0.26v0.13H234.6v0.13h-0.26v0.13h-0.259v0.13h-0.259c-0.043.08-.086,0.17-0.129,0.26-0.259.08-.518,0.17-0.777,0.26v0.13c-0.13.04-.259,0.08-0.389,0.13-0.043.08-.086,0.17-0.129,0.26h-0.26v0.13c-0.129.04-.259,0.08-0.388,0.13-0.043.08-.086,0.17-0.13,0.26h-0.259q-0.129.2-.259,0.39c-0.129.04-.259,0.08-0.388,0.13-0.3.34-.6,0.69-0.907,1.04h-0.259c-0.043.13-.086,0.26-0.13,0.39l-0.906.78v0.26c-0.087.04-.173,0.08-0.259,0.13v0.26c-0.13.08-.259,0.17-0.389,0.26-0.086.26-.173,0.52-0.259,0.78h-0.13a7.649,7.649,0,0,0-.906,3.9h-2.2a8.969,8.969,0,0,1,1.943-5.85v-0.26c0.086-.05.172-0.09,0.259-0.13l0.129-.39,0.518-.39v-0.26l0.518-.39,1.037-1.17h0.259c0.172-.22.345-0.44,0.518-0.65,0.129-.05.259-0.09,0.388-0.13,0.044-.09.087-0.18,0.13-0.26h0.259l0.259-.39h0.259c0.043-.09.087-0.18,0.13-0.26h0.259c0.043-.09.086-0.18,0.129-0.26,0.173-.05.346-0.09,0.518-0.13,0.044-.09.087-0.18,0.13-0.26,0.173-.05.345-0.09,0.518-0.13,0.043-.09.086-0.18,0.13-0.27h0.259v-0.13h0.259v-0.13h0.259v-0.13h0.259v-0.13h0.259v-0.13h0.259v-0.13c0.259-.08.518-0.17,0.777-0.26v-0.13c0.216-.04.432-0.08,0.648-0.13v-0.13H235.9v-0.13h0.388v-0.13h0.259v-0.13h0.389v-0.13h0.259v-0.13h0.389v-0.13h0.388v-0.13h0.389v-0.13h0.388v-0.13h0.389v-0.13h0.518v-0.13h0.389v-0.13c0.475-.08.95-0.17,1.425-0.26v-0.13h0.647v-0.13h0.518v-0.13h0.778v-0.13h0.647v-0.13h0.777v-0.13h0.907v-0.13h1.036v-0.13h1.166v-0.13h2.2v-0.13a13.821,13.821,0,0,1,3.5.13h1.425c0.691,0.05,1.382.09,2.073,0.13v0.13c0.647,0.05,1.3.09,1.943,0.13,0.61,0.18,1.482.34,2.072,0.52H261.8v0.13c0.345,0.05.691,0.09,1.036,0.13v0.13c0.345,0.05.691,0.09,1.036,0.13v0.13h0.389v0.13h0.388v0.13h0.518v0.13h0.389v0.13h0.389v0.13h0.388v0.13h0.259v0.13h0.389v0.13h0.259v0.13h0.388v0.13h0.26v0.13h0.388v0.13c0.173,0.05.346,0.09,0.518,0.13v0.13h0.259v0.13h0.389v0.13c0.173,0.05.345,0.09,0.518,0.13v0.13c0.173,0.05.345,0.09,0.518,0.13,0.043,0.09.086,0.18,0.13,0.26h0.259v0.13h0.259v0.13h0.259v0.14h0.259c0.043,0.08.086,0.17,0.129,0.26,0.173,0.04.346,0.08,0.519,0.13,0.043,0.08.086,0.17,0.129,0.26h0.259c0.043,0.08.087,0.17,0.13,0.26h0.259q0.129,0.195.259,0.39h0.259c0.043,0.08.086,0.17,0.129,0.26h0.259l0.26,0.39c0.129,0.04.259,0.08,0.388,0.13l1.036,1.17A10.653,10.653,0,0,1,279.547,2251.2Zm-36.009-9.36c0.937-.04,1.638.19,1.813,0.91,0.407,0.39.114,0.79,0,1.3a2.431,2.431,0,0,1-1.942.65c-0.428-.65-0.979-0.5-1.037-1.69a5.066,5.066,0,0,0,.389-0.65C242.969,2242.13,243.337,2242.07,243.538,2241.84Zm16.709,0.13a5.332,5.332,0,0,1,1.037.26c0.259,0.3.518,0.6,0.777,0.91a1.813,1.813,0,0,1-1.943,2.08v-0.13c-0.216-.05-0.432-0.09-0.648-0.13-0.428-.72-0.779-0.54-0.777-1.82,0.3-.19.373-0.6,0.648-0.78H259.6v-0.13c0.216-.05.432-0.09,0.647-0.13v-0.13Zm-15.8,1.82,0.129-.78a1.3,1.3,0,0,1-.518-0.52c-0.129.04-.259,0.08-0.388,0.13-0.294.58-.411,1.23,0.388,1.43,0.043-.09.086-0.18,0.13-0.26h0.259Zm15.8-.78a1.8,1.8,0,0,1-.388.52,0.245,0.245,0,0,0,.129.13,0.524,0.524,0,0,0,.518.52v-0.13a0.607,0.607,0,0,0,.389-0.65A1.809,1.809,0,0,0,260.247,2243.01Zm-24.351,1.82a1.745,1.745,0,0,1,1.036.26,1.966,1.966,0,0,1,1.425,2.21,1.21,1.21,0,0,0-.259.52c-0.087.04-.173,0.09-0.259,0.13-0.685.72-.929,0.79-2.332,0.78a1.183,1.183,0,0,0-.518-0.26c-0.3-.35-0.6-0.69-0.907-1.04l-0.129-.78h0.129a2.076,2.076,0,0,1,1.166-1.56c0.216-.05.432-0.09,0.648-0.13v-0.13Zm15.543,0.26a5.49,5.49,0,0,1,1.555.26c0.226,0.37,1.08.99,0.906,1.69h-0.129c-0.043.22-.086,0.43-0.13,0.65-0.71.41-.881,0.88-2.072,0.91v-0.13c-0.216-.04-0.432-0.09-0.648-0.13-0.3-.35-0.6-0.69-0.907-1.04a1.911,1.911,0,0,1,.907-1.95A1.119,1.119,0,0,0,251.439,2245.09Zm16.71,0h1.036v0.13a3.465,3.465,0,0,1,1.036.52V2246h0.13a1.686,1.686,0,0,0,.259.39v0.91a3.138,3.138,0,0,1-1.166,1.04,1.561,1.561,0,0,1-1.166.26v-0.13H267.89c-0.044-.09-0.087-0.17-0.13-0.26a1.158,1.158,0,0,1-.777-0.78,1,1,0,0,1-.259-0.91h0.129v-0.39l0.518-.39c0.044-.09.087-0.18,0.13-0.26A4.4,4.4,0,0,0,268.149,2245.09Zm-16.321,1.3c-0.043.21-.086,0.43-0.13,0.65a0.22,0.22,0,0,1,.13.13c0.26-.08.112,0.01,0.259-0.13h0.13C252.387,2246.68,251.972,2246.47,251.828,2246.39Zm16.709,0.13a1.353,1.353,0,0,0-.129.52,0.216,0.216,0,0,1,.129.13c0.261-.08.112,0.01,0.259-0.13h0.13v-0.39C268.8,2246.6,268.667,2246.56,268.537,2246.52Zm-30.439,5.2c-0.029,1.28-.293,3.42.518,3.9a1.9,1.9,0,0,0,1.425.26v-0.13h0.388c0.831-.48.69-2.65,0.648-4.03H267.89c-0.041,1.33-.273,3.24.777,3.51a2.882,2.882,0,0,0,1.813,0,8.356,8.356,0,0,0,.518-0.78v-2.73a12.491,12.491,0,0,1,4.016.26v0.13c0.172,0.04.345,0.09,0.518,0.13,0.043,0.09.086,0.17,0.129,0.26h0.259q0.13,0.2.259,0.39h0.259v0.13c0.13,0.09.26,0.17,0.389,0.26v0.26c0.13,0.09.259,0.17,0.389,0.26v0.26h0.129q0.13,0.39.259,0.78h0.13v0.52a6.561,6.561,0,0,1,.129,1.82v4.56a4.862,4.862,0,0,1,4.922,3.38v0.65h0.13a9.261,9.261,0,0,1-.518,4.16c-0.087.04-.173,0.09-0.259,0.13v0.26c-0.13.09-.259,0.17-0.389,0.26v0.26H281.62c-0.043.09-.087,0.17-0.13,0.26h-0.259c-0.129.17-.259,0.35-0.389,0.52h-0.259v0.13c-0.259.09-.518,0.17-0.777,0.26v0.13h-0.518v0.13H224.5v-0.13c-0.259-.04-0.518-0.09-0.777-0.13v-0.13h-0.259c-0.043-.09-0.086-0.17-0.13-0.26h-0.259c-0.043-.09-0.086-0.17-0.129-0.26h-0.259c-0.043-.09-0.087-0.17-0.13-0.26-0.216-.17-0.431-0.35-0.647-0.52v-0.26c-0.087-.04-0.173-0.09-0.259-0.13v-0.26c-0.087-.04-0.173-0.09-0.259-0.13v-0.39h-0.13v-0.26h-0.13v-0.52a5.972,5.972,0,0,1-.129-1.69v-1.43a4.838,4.838,0,0,1,4.922-3.77c-0.014-1.84-.295-5.75.259-7.03a5.429,5.429,0,0,1,3.627-2.99h8.29Zm-9.974,10.02h6.088c0.3,0.34.6,0.69,0.907,1.04h0.259l1.036,1.17a4.422,4.422,0,0,1,1.425,1.3,0.245,0.245,0,0,0,.129-0.13,6.432,6.432,0,0,0,1.684-1.56c0.648-.61,1.3-1.22,1.943-1.82h9.067c-0.049-2.44.383-3.33,1.814-4.3,0.043-.08.086-0.17,0.129-0.26h0.259v-0.13h0.259v-0.13h0.389c2.346-.84,4.186,1.33,4.663,2.86v1.96h17.486a39.331,39.331,0,0,0-.259-6.9c-0.216-.17-0.432-0.34-0.647-0.52v-0.13h-0.389a2.137,2.137,0,0,0-1.166-.26,3.215,3.215,0,0,1-.388,1.56h-0.13c-0.043.18-.086,0.35-0.129,0.52-0.087.05-.173,0.09-0.259,0.13l-0.648.78h-0.259c-0.043.09-.086,0.18-0.13,0.26-0.172.05-.345,0.09-0.518,0.13v0.13h-0.388v0.13h-0.778c-1.782.39-3.873-1.73-3.885-3.64H243.279a3.343,3.343,0,0,1-.648,2.21v0.26H242.5a1.519,1.519,0,0,0-.389.65,1.557,1.557,0,0,0-.647.39v0.13l-1.166.39v0.13a3.205,3.205,0,0,1-1.555-.13c-0.259-.04-0.518-0.08-0.777-0.13-0.043-.08-0.086-0.17-0.129-0.26H237.58c-0.043-.08-0.087-0.17-0.13-0.26h-0.259l-0.259-.39H236.8v-0.26c-0.129-.08-0.259-0.17-0.388-0.26-0.086-.26-0.173-0.52-0.259-0.78h-0.13a8.488,8.488,0,0,0-.259-1.56,3.3,3.3,0,0,0-1.554-.13h-4.275v0.13h-0.518v0.13c-0.733.18-.712,0.66-1.165,1.04v0.65h-0.13v5.86Zm3.627-5.34h0.907c0.26,0.39.142,0.07,0.388,0.26,0.043,0.09.087,0.18,0.13,0.26h0.129v0.26c0.087,0.05.173,0.09,0.259,0.13v0.91c-0.592.51-.557,1-1.684,1.04-0.577-.64-1.146-0.49-1.165-1.82a5.166,5.166,0,0,0,.388-0.52A6.645,6.645,0,0,0,231.751,2256.4Zm0.129,0.65a2.772,2.772,0,0,1-.518.65c0.075,0.26-.015.12,0.13,0.26a1.247,1.247,0,0,0,.518.65c0.26-.07.112,0.02,0.259-0.13a0.8,0.8,0,0,0,.648-0.91A1.56,1.56,0,0,0,231.88,2257.05Zm20.984,4.69h3.109v-1.83h-0.13c-0.043-.17-0.086-0.34-0.129-0.52a3.643,3.643,0,0,0-1.943-.39,1.246,1.246,0,0,0-.648.65C252.756,2260.02,252.849,2261.01,252.864,2261.74Zm-27.849,2.21v0.13H224.5v0.13a0.985,0.985,0,0,0-.906.78,0.889,0.889,0,0,0-.26.65H223.2v2.86a8.665,8.665,0,0,1,.389.91c0.345,0.22.69,0.43,1.036,0.65h54.532v-0.13c0.215-.04.431-0.09,0.647-0.13a9.31,9.31,0,0,0,.777-1.04,8.626,8.626,0,0,0-.129-3.77c-0.086-.05-0.173-0.09-0.259-0.13v-0.26c-0.13-.05-0.259-0.09-0.389-0.13v-0.13a2.024,2.024,0,0,1-.388-0.26c-8.9-.23-18.348-0.13-27.461-0.13h-6.994c-0.641,0-2.081-.2-2.461.13a2.728,2.728,0,0,0-1.166,1.04,18.137,18.137,0,0,1-2.2,1.95c-0.043.08-.086,0.17-0.129,0.26a3.535,3.535,0,0,1-1.166.91l-1.037-1.17h-0.259c-0.388-.44-0.777-0.87-1.165-1.3h-0.259l-1.037-1.17c-0.129-.05-0.259-0.09-0.388-0.13-0.13-.18-0.259-0.35-0.389-0.52h-8.29Zm52.33,10.53h2.2a14.112,14.112,0,0,1-.129,3.38h-0.13v0.39h-0.129v0.39h-0.13v0.39H278.9c-0.044.18-.087,0.35-0.13,0.52h-0.129c-0.044.18-.087,0.35-0.13,0.52-0.086.05-.173,0.09-0.259,0.13v0.26c-0.13.09-.259,0.18-0.389,0.26v0.26c-0.345.31-.691,0.61-1.036,0.91l-0.259.39h-0.259c-0.043.09-.086,0.18-0.13,0.26-0.129.05-.259,0.09-0.388,0.13v0.13c-0.173.05-.346,0.09-0.518,0.13-0.043.09-.087,0.18-0.13,0.26h-0.388v0.13H274.5v0.13h-0.389v0.13h-0.389v0.14H273.2v0.13c-1.511.04-3.022,0.08-4.533,0.13H235.119a14.7,14.7,0,0,1-3.239-.13c-0.6-.05-1.209-0.09-1.813-0.13a8.985,8.985,0,0,1-5.44-5.21v-0.52a10.986,10.986,0,0,1-.389-3.38,7.333,7.333,0,0,1,2.2-.13,10.17,10.17,0,0,1,.13,2.86q0.258,0.78.518,1.56c0.086,0.05.173,0.09,0.259,0.13v0.26c0.086,0.05.173,0.09,0.259,0.13v0.26c0.259,0.22.518,0.44,0.777,0.65,0.043,0.09.086,0.18,0.13,0.26h0.259c0.043,0.09.086,0.18,0.129,0.26h0.259c0.043,0.09.087,0.18,0.13,0.26h0.259v0.13a10.153,10.153,0,0,0,3.886.39h39.636v-0.13h0.518v-0.13h0.388v-0.13c0.259-.08.519-0.17,0.778-0.26v-0.13h0.259q0.129-.2.259-0.39h0.259c0.129-.17.259-0.34,0.388-0.52h0.13v-0.26c0.129-.08.259-0.17,0.388-0.26v-0.26c0.087-.04.173-0.08,0.26-0.13,0.043-.17.086-0.34,0.129-0.52h0.13A10.961,10.961,0,0,0,277.345,2274.48Z" transform="translate(-220.969 -2235)"/>
</svg>
