<svg xmlns="http://www.w3.org/2000/svg" width="40" height="53" viewBox="0 0 40 53">
  <metadata><?xpacket begin="﻿" id="W5M0MpCehiHzreSzNTczkc9d"?>
<x:xmpmeta xmlns:x="adobe:ns:meta/" x:xmptk="Adobe XMP Core 5.6-c138 79.159824, 2016/09/14-01:09:01        ">
   <rdf:RDF xmlns:rdf="http://www.w3.org/1999/02/22-rdf-syntax-ns#">
      <rdf:Description rdf:about=""/>
   </rdf:RDF>
</x:xmpmeta>
                                                                                                    
                                                                                                    
                                                                                                    
                                                                                                    
                                                                                                    
                                                                                                    
                                                                                                    
                                                                                                    
                                                                                                    
                                                                                                    
                                                                                                    
                                                                                                    
                                                                                                    
                                                                                                    
                                                                                                    
                                                                                                    
                                                                                                    
                                                                                                    
                                                                                                    
                                                                                                    
                           
<?xpacket end="w"?></metadata>
<defs>
    <style>
      .cls-1 {
        fill: #fff;
        fill-rule: evenodd;
      }
    </style>
  </defs>
  <path class="cls-1" d="M1025.25,2233c2.26,0.48,4.51.97,6.77,1.45,0.28,0.32.07,1.16,0.21,1.66h0.1v0.93h0.11v0.82h0.1v0.94h0.11v0.82h0.1v0.94h0.1v0.93a6.2,6.2,0,0,1,.21,1.76h0.11v-0.21a3.04,3.04,0,0,0,.2-1.03h0.11v-0.52c0.35-1.12.48-2.51,0.83-3.63v-0.51h0.11a1.97,1.97,0,0,1,.2-0.93c0.46,0.27.91,0.55,1.36,0.82h0.21c0.03,0.07.07,0.14,0.1,0.21l0.63,0.21c0.03,0.07.07,0.14,0.1,0.2h0.21v0.11h0.21v0.1h0.21v0.11a0.748,0.748,0,0,0,.41.1,2.175,2.175,0,0,1,.94-0.21v-0.1h0.52v-0.11c1.11-.2,2.22-0.41,3.33-0.62,0.18-1.03.35-2.07,0.52-3.1h0.11a0.839,0.839,0,0,0,.42.21v0.1h0.2v0.1h0.21c0.04,0.07.07,0.14,0.11,0.21h0.2v0.1h0.21v0.11h0.21v0.1h0.21v0.1h0.21v0.11h0.21v0.1h0.2c0.04,0.07.07,0.14,0.11,0.21h0.21v0.1h0.21v0.1h0.2v0.11h0.21v0.1c0.14,0.04.28,0.07,0.42,0.11,0.03,0.06.07,0.13,0.1,0.2h0.21v0.11h0.21v0.1h0.21v0.1h0.21v0.11h0.2v0.1h0.21v0.1a3.333,3.333,0,0,0,.94.42c-0.21,1.34-.42,2.69-0.62,4.03l4.16-.51v0.1a3.737,3.737,0,0,0-.21,1.14h-0.1v0.62c-0.2.67-.32,1.6-0.52,2.28v0.62a11.512,11.512,0,0,0-.52,2.79H1054q-2.235,18.795-4.48,37.58l-1.98-.21v-0.1h-0.94v-0.1h-0.93v-0.11h-1.05v-0.1h-1.14v-0.1h-1.36v-0.11h-1.45v-0.1h-1.88v-0.11h-3.02v-0.1c-1.53.04-3.05,0.07-4.58,0.1a9.2,9.2,0,0,0-2.09.11h-1.77v0.1h-1.46v0.11h-1.35v0.1h-1.15v0.1l-2.91.21a13.649,13.649,0,0,1-1.98.31v-0.1h-0.11a5.88,5.88,0,0,0-.2-1.76v-0.94h-0.11v-0.82h-0.1v-0.94h-0.11v-0.82h-0.1v-0.93h-0.1v-0.83h-0.11v-0.93h-0.1v-0.83h-0.11q-0.615-5.745-1.25-11.49c-0.37-1.31-.25-3.05-0.62-4.35v-0.93h-0.11c-0.03-.59-0.07-1.18-0.1-1.76h-0.1v-0.83h-0.11v-0.93h-0.1v-0.83h-0.11v-0.93h-0.1v-0.83h-0.11v-0.93h-0.1v-0.83h-0.1v-0.93h-0.11v-0.83h-0.1l-0.21-2.28h2.19a2.506,2.506,0,0,0-.21-0.93v-0.52h-0.11v-0.51h-0.1v-0.52h-0.1v-0.41h-0.11v-0.52c-0.24-.76-0.39-1.74-0.62-2.49v-0.51c-0.19-.6-0.34-1.38-0.52-1.97v-0.52a9.072,9.072,0,0,1-.42-1.76h0.1c0.32,0.27,1.28.07,1.77,0.21v0.1h0.94v0.11h0.84v0.1h0.93v0.1l2.4,0.21c0.24,1.14.49,2.28,0.73,3.42a2.062,2.062,0,0,0,.73-0.42c0.14-.03.28-0.07,0.41-0.1,0.04-.07.07-0.14,0.11-0.21,0.14-.03.28-0.07,0.41-0.1,0.04-.07.07-0.14,0.11-0.21,0.14-.03.28-0.07,0.42-0.1,0.03-.07.07-0.14,0.1-0.21,0.14-.03.28-0.07,0.42-0.1,0.03-.07.07-0.14,0.1-0.21,0.14-.04.28-0.07,0.42-0.1v-0.11h0.21c0.03-.07.07-0.14,0.1-0.2,0.1-.04.21-0.07,0.31-0.11v0.21a2.163,2.163,0,0,1,.21.93h0.1v0.41h0.11v0.52h0.1v0.52h0.11v0.41h0.1v0.52h0.11Q1025.815,2238.175,1025.25,2233Zm2.5,2.79c0.1,0.69.21,1.38,0.31,2.07v0.83h0.11v0.93h0.1v0.83h0.1v0.93h0.11v0.83h0.1v0.93h0.11v0.94h0.1v0.82h0.11v0.94c0.37,1.3.25,3.04,0.62,4.34v0.93h0.1v0.83c0.31,1.05.22,2.48,0.53,3.52,0.15,0.52-.14.9,0.2,1.24v0.11c0.73,0.14,1.46.27,2.19,0.41q-1.245-10.5-2.5-21.01Zm17.29,1.76c-0.21,1.07-.42,2.14-0.62,3.21v0.62c-0.22.72-.31,1.67-0.52,2.39-0.18,1.86-.35,3.72-0.53,5.59h-0.1v0.93h-0.1v0.93h-0.11l-0.21,2.28h0.11c0.21-.25.41-0.49,0.62-0.73,0.07-.03.14-0.07,0.21-0.1v-0.21c0.11-.07.21-0.14,0.31-0.21v-0.2c0.07-.04.14-0.07,0.21-0.11l1.77-10.14h0.42a0.217,0.217,0,0,1,.1-0.11,6.567,6.567,0,0,1,.32-1.75v-0.63h0.1c0.08-.26.01-0.48,0.1-0.72-0.13-.03-0.27-0.07-0.41-0.1-0.04-.07-0.07-0.14-0.11-0.21-0.13-.04-0.27-0.07-0.41-0.1v-0.11c-0.14-.03-0.28-0.07-0.42-0.1A2.852,2.852,0,0,0,1045.04,2237.55Zm-6.98,19.05a4.73,4.73,0,0,0,1.46-.62h0.21v-0.1c0.14-.04.28-0.07,0.42-0.11v-0.1a0.346,0.346,0,0,0,.2-0.31,2.824,2.824,0,0,0,.11-0.93h0.1v-0.93h0.11v-0.94h0.1v-0.93h0.1v-0.93h0.11v-0.83h0.1v-1.03h0.11v-0.83h0.1v-1.04h0.11v-0.82h0.1v-0.94h0.1v-0.93h0.11v-0.93h0.1v-0.93a11.119,11.119,0,0,0,.31-2.8c-0.48.11-.97,0.21-1.45,0.32-0.28,1.27-.56,2.55-0.84,3.83-0.03.34-.07,0.69-0.1,1.03-0.35,1.11-.5,2.5-0.83,3.62-0.07.94-.14,1.87-0.21,2.8h-0.11v0.93h-0.1v0.93h-0.11v1.04A11.136,11.136,0,0,0,1038.06,2256.6Zm-3.33.62h0.21q1.605-8.115,3.23-16.25c-0.7-.38-1.39-0.76-2.09-1.14a5.32,5.32,0,0,1-.31,1.55v0.52c-0.19.62-.33,1.46-0.52,2.07l-0.21,1.56c-0.45,1.44-.62,3.2-1.04,4.65C1034.24,2252.53,1034.49,2254.88,1034.73,2257.22Zm-17.92-16.87c0.56,2.69,1.11,5.38,1.67,8.07h2.08c-0.14-.79-0.28-1.58-0.41-2.38h-0.11c-0.03-.34-0.07-0.69-0.1-1.03h-0.11v-0.42h-0.1v-0.51h-0.11v-0.52h-0.1a2.6,2.6,0,0,0,.1-0.83,9.524,9.524,0,0,1-.41-1.97,1.641,1.641,0,0,0-1.04-.2A5.886,5.886,0,0,0,1016.81,2240.35Zm5.21,4.04c0.52,2.48,1.04,4.97,1.56,7.45,0.07,0.03.14,0.07,0.21,0.1v0.21c0.14,0.1.28,0.21,0.42,0.31v0.21c0.28,0.24.55,0.48,0.83,0.72v0.21c0.07,0.03.14,0.07,0.21,0.1v0.11h0.21c0.03,0.07.07,0.13,0.1,0.2a3.544,3.544,0,0,0,.94.73v-0.42a2.094,2.094,0,0,1-.21-0.93h-0.1v-0.52h-0.11v-0.41h-0.1v-0.52h-0.11v-0.51h-0.1c-0.03-.32-0.07-0.63-0.1-0.94h-0.11v-0.41h-0.1v-0.52h-0.11c-0.03-.31-0.07-0.62-0.1-0.93h-0.1c-0.04-.34-0.07-0.69-0.11-1.03h-0.1v-0.42h-0.11v-0.52h-0.1v-0.51h-0.11v-0.42h-0.1c-0.03-.34-0.07-0.69-0.1-1.03a5.462,5.462,0,0,1-.32-1.35,0.748,0.748,0,0,0-.41.1v0.11h-0.21v0.1h-0.21c-0.03.07-.07,0.14-0.1,0.21-0.14.03-.28,0.07-0.42,0.1A2.126,2.126,0,0,1,1022.02,2244.39Zm25.94-.62a2.928,2.928,0,0,1-.21,1.03v0.62h-0.1v0.62h-0.11v0.52h-0.1v0.62h-0.11v0.52h-0.1c-0.08.26-.01,0.48-0.11,0.72h2.3c0.27-1.65.55-3.31,0.83-4.97A14.527,14.527,0,0,1,1047.96,2243.77Zm-31.46,6.93q0.84,7.14,1.67,14.29h7.6c0.17-.25.35-0.49,0.52-0.73,0.11-.07.21-0.14,0.31-0.21v-0.2c0.18-.14.35-0.28,0.52-0.42,0.04-.07.07-0.13,0.11-0.2h0.21c0.14-.18.28-0.35,0.41-0.52h0.21c0.04-.07.07-0.14,0.11-0.21h0.2c0.04-.07.07-0.14,0.11-0.21,0.1-.03.21-0.06,0.31-0.1v-0.1c0.14-.04.28-0.07,0.42-0.11,0.03-.06.07-0.13,0.1-0.2h0.21v-0.11h0.21v-0.1h0.31v-0.1h0.21v-0.11h0.31v-0.1h0.21v-0.1l1.25-.21v-0.1h0.63a10.78,10.78,0,0,1,2.81-.11v0.11h0.52v0.1h0.52v0.1h0.31v0.11h0.42v0.1c0.17,0.03.35,0.07,0.52,0.1v0.11c0.14,0.03.28,0.07,0.42,0.1v0.1h0.31v0.11h0.21c0.03,0.07.07,0.14,0.1,0.2,0.14,0.04.28,0.07,0.42,0.11,0.03,0.07.07,0.14,0.1,0.2h0.21v0.11c0.1,0.03.21,0.07,0.31,0.1,0.04,0.07.07,0.14,0.11,0.21h0.21c0.17,0.21.34,0.41,0.52,0.62h0.2c0.04,0.07.07,0.14,0.11,0.21,0.14,0.1.28,0.2,0.42,0.31v0.2c0.17,0.14.34,0.28,0.52,0.42v0.21c0.1,0.06.2,0.13,0.31,0.2v0.11h7.6q0.84-7.155,1.67-14.29h-3.85l-1.05,1.86c-0.07.04-.13,0.07-0.2,0.11v0.2c-0.07.04-.14,0.07-0.21,0.11v0.21c-0.11.06-.21,0.13-0.32,0.2v0.21c-0.1.07-.2,0.14-0.31,0.21v0.2c-0.24.21-.48,0.42-0.73,0.62v0.21c-0.24.21-.48,0.42-0.73,0.62-0.03.07-.07,0.14-0.1,0.21h-0.21c-0.17.21-.35,0.41-0.52,0.62h-0.21c-0.1.14-.21,0.28-0.31,0.41h-0.21c-0.03.07-.07,0.14-0.1,0.21h-0.21c-0.04.07-.07,0.14-0.11,0.21h-0.2c-0.04.07-.07,0.14-0.11,0.21h-0.21c-0.03.06-.07,0.13-0.1,0.2-0.14.04-.28,0.07-0.42,0.11-0.03.07-.07,0.13-0.1,0.2-0.14.04-.28,0.07-0.42,0.11v0.1c-0.14.03-.28,0.07-0.41,0.1v0.11h-0.32v0.1h-0.21v0.1h-0.31v0.11h-0.21v0.1h-0.31v0.11h-0.31v0.1h-0.31v0.1c-0.28.04-.56,0.07-0.84,0.11a12.738,12.738,0,0,1-6.14.1c-0.32-.04-0.63-0.07-0.94-0.1-0.62-.21-1.25-0.42-1.88-0.63v-0.1h-0.2v-0.1c-0.32-.11-0.63-0.21-0.94-0.31-0.04-.07-0.07-0.14-0.11-0.21-0.2-.07-0.41-0.14-0.62-0.21-0.03-.07-0.07-0.14-0.1-0.2h-0.21c-0.04-.07-0.07-0.14-0.11-0.21h-0.21a2,2,0,0,0-.1-0.21h-0.21c-0.03-.07-0.07-0.14-0.1-0.21h-0.21c-0.1-.13-0.21-0.27-0.31-0.41h-0.21c-0.17-.21-0.35-0.41-0.52-0.62H1024l-0.63-.72c-0.06-.04-0.13-0.07-0.2-0.11v-0.21c-0.25-.2-0.49-0.41-0.73-0.62v-0.2c-0.11-.07-0.21-0.14-0.32-0.21v-0.21a3.284,3.284,0,0,0-.31-0.2v-0.21c-0.07-.04-0.14-0.07-0.21-0.11-0.03-.1-0.07-0.2-0.1-0.31h-0.1v-0.2c-0.07-.04-0.14-0.07-0.21-0.11-0.04-.1-0.07-0.2-0.11-0.31h-0.1c-0.04-.13-0.07-0.27-0.11-0.41a1.244,1.244,0,0,0-.2-0.1,3.553,3.553,0,0,0-.32-0.73h-3.85Zm16.46,12.22v0.1h-0.63v0.1h-0.41v0.11h-0.32v0.1h-0.31v0.1h-0.21v0.11h-0.31v0.1c-0.14.03-.28,0.07-0.42,0.1v0.11h-0.2c-0.04.07-.07,0.14-0.11,0.2-0.14.04-.28,0.07-0.42,0.11-0.06.1-.13,0.2-0.2,0.31h-0.21c-0.14.17-.28,0.34-0.42,0.52-0.1.03-.21,0.06-0.31,0.1-0.04.1-.07,0.21-0.11,0.31-0.2.17-.41,0.35-0.62,0.52v0.2c-0.07.04-.14,0.07-0.21,0.11v0.21a2,2,0,0,0-.21.1c-0.03.14-.07,0.28-0.1,0.41h-0.11v0.21h-0.1c-0.07.21-.14,0.41-0.21,0.62h-0.1v0.31h-0.11v0.31h-0.1v0.42h-0.1v0.41h-0.11v0.93h-0.1a2.218,2.218,0,0,0,.1,1.04v0.83h0.11v0.51h0.1v0.31h0.1c0.04,0.21.07,0.42,0.11,0.62h0.1v0.21h0.11v0.31h0.1v0.21c0.07,0.03.14,0.07,0.21,0.1,0.03,0.14.07,0.28,0.1,0.42h0.11c0.03,0.1.07,0.2,0.1,0.31,0.07,0.03.14,0.07,0.21,0.1v0.21c0.14,0.1.28,0.2,0.42,0.31v0.21a1.244,1.244,0,0,1,.2.1l0.32,0.41h0.21c0.13,0.18.27,0.35,0.41,0.52h0.21a2,2,0,0,1,.1.21c0.11,0.03.21,0.07,0.32,0.1v0.1c0.14,0.04.28,0.07,0.41,0.11v0.1l0.63,0.21v0.1h0.31v0.11a8.083,8.083,0,0,0,2.92.41h0.83v-0.1h0.63v-0.11h0.41v-0.1h0.32v-0.1h0.31v-0.11h0.31v-0.1l0.63-.21v-0.1c0.13-.04.27-0.07,0.41-0.11,0.04-.06.07-0.13,0.11-0.2h0.2c0.04-.07.07-0.14,0.11-0.21h0.21c0.14-.17.28-0.34,0.41-0.52h0.21c0.11-.14.21-0.27,0.31-0.41h0.11v-0.21c0.17-.14.35-0.27,0.52-0.41v-0.21c0.07-.03.14-0.07,0.21-0.1,0.03-.11.07-0.21,0.1-0.31h0.11c0.03-.14.07-0.28,0.1-0.42,0.07-.03.14-0.07,0.21-0.1,0.24-.73.49-1.45,0.73-2.17v-0.94h0.1c-0.07-.76-0.14-1.51-0.21-2.27h-0.1c-0.07-.35-0.14-0.69-0.21-1.04a8.5,8.5,0,0,0-5.21-4.66h-0.52A9.065,9.065,0,0,0,1032.96,2262.92Zm-14.48,4.34a10.124,10.124,0,0,0,.31,2.28v0.93h0.11v0.83h0.1v0.93h0.1c0.14,0.48-.07,1.25.21,1.55a2.919,2.919,0,0,0,1.36.11h3.85a13.786,13.786,0,0,0-.42-1.45c-0.03-.66-0.07-1.31-0.1-1.97v-0.83c0.17-.79.35-1.58,0.52-2.38h-6.04Zm25,0c0.17,0.8.35,1.59,0.52,2.38v0.83a15.78,15.78,0,0,1-.52,3.42h5.21a0.182,0.182,0,0,1,.1-0.11c0.24-2.17.49-4.34,0.73-6.52h-6.04Zm-5.31,1.35a1.981,1.981,0,0,1,.31,1.03h-0.11v0.31h-0.1c-0.03.11-.07,0.21-0.1,0.32-0.11.03-.21,0.06-0.32,0.1v0.1h-0.31v0.11h-7.08v-0.11h-0.31v-0.1c-0.11-.04-0.21-0.07-0.32-0.1-0.03-.11-0.07-0.21-0.1-0.32h-0.11v-0.31h-0.1l0.21-.93c0.24-.14.49-0.27,0.73-0.41h7.08v0.1h0.31v0.11C1037.96,2268.54,1038.06,2268.57,1038.17,2268.61Zm-6.57,3a30.207,30.207,0,0,1,5.32.21,1.821,1.821,0,0,1,.41,1.24,1.174,1.174,0,0,1-.62.62,2.573,2.573,0,0,1-1.56.21h-3.55v-0.11c-0.17-.03-0.34-0.06-0.52-0.1a1.821,1.821,0,0,1-.41-1.24,1.141,1.141,0,0,1,.62-0.62v-0.11h0.31v-0.1Zm-12.08,4.45c0.28,2.49.56,4.97,0.83,7.46,0.49-.04.98-0.07,1.46-0.11v-0.1h1.04v-0.11H1024v-0.1h1.15c0.14-.02-0.04-0.06.1-0.1h1.35v-0.11h1.77v-0.1h2.4v-0.1h6.46v0.1c0.66,0.18,1.75-.07,2.39.1h1.67V2283c0.9,0.03,1.81.07,2.71,0.1v0.1h1.15v0.11h1.04v0.1c0.48,0.04.97,0.07,1.46,0.11,0.27-2.49.55-4.97,0.83-7.46h-6.15c-0.03.11-.07,0.21-0.1,0.31-0.07.04-.14,0.07-0.21,0.11v0.2c-0.17.14-.35,0.28-0.52,0.42v0.2c-0.24.21-.49,0.42-0.73,0.63-0.03.06-.07,0.13-0.1,0.2h-0.21c-0.11.14-.21,0.28-0.31,0.42h-0.21c-0.07.1-.14,0.2-0.21,0.31h-0.21c-0.03.07-.07,0.14-0.1,0.2-0.14.04-.28,0.07-0.42,0.11-0.03.07-.07,0.14-0.1,0.2-0.14.04-.28,0.07-0.42,0.11v0.1c-0.14.04-.28,0.07-0.42,0.11v0.1h-0.31v0.1h-0.21V2280c-0.35.06-.69,0.13-1.04,0.2a8.687,8.687,0,0,1-5,0c-0.35-.07-0.69-0.14-1.04-0.2v-0.11h-0.21v-0.1h-0.31v-0.1c-0.14-.04-0.28-0.07-0.42-0.11v-0.1c-0.14-.04-0.28-0.07-0.42-0.11-0.03-.06-0.07-0.13-0.1-0.2-0.14-.04-0.28-0.07-0.42-0.11-0.03-.06-0.07-0.13-0.1-0.2h-0.21c-0.07-.11-0.14-0.21-0.21-0.31h-0.21c-0.1-.14-0.2-0.28-0.31-0.42h-0.21c-0.03-.07-0.07-0.14-0.1-0.2-0.24-.21-0.49-0.42-0.73-0.63v-0.2c-0.17-.14-0.35-0.28-0.52-0.42v-0.2c-0.07-.04-0.14-0.07-0.21-0.11-0.03-.1-0.07-0.2-0.1-0.31h-6.15Z" transform="translate(-1014 -2233)"/>
</svg>
