<svg xmlns="http://www.w3.org/2000/svg" width="39.969" height="54.96" viewBox="0 0 39.969 54.96">
  <metadata><?xpacket begin="﻿" id="W5M0MpCehiHzreSzNTczkc9d"?>
<x:xmpmeta xmlns:x="adobe:ns:meta/" x:xmptk="Adobe XMP Core 5.6-c138 79.159824, 2016/09/14-01:09:01        ">
   <rdf:RDF xmlns:rdf="http://www.w3.org/1999/02/22-rdf-syntax-ns#">
      <rdf:Description rdf:about=""/>
   </rdf:RDF>
</x:xmpmeta>
                                                                                                    
                                                                                                    
                                                                                                    
                                                                                                    
                                                                                                    
                                                                                                    
                                                                                                    
                                                                                                    
                                                                                                    
                                                                                                    
                                                                                                    
                                                                                                    
                                                                                                    
                                                                                                    
                                                                                                    
                                                                                                    
                                                                                                    
                                                                                                    
                                                                                                    
                                                                                                    
                           
<?xpacket end="w"?></metadata>
<defs>
    <style>
      .cls-1 {
        fill: #fff;
        fill-rule: evenodd;
      }
    </style>
  </defs>
  <path class="cls-1" d="M621.863,2244.96h22.5a20.544,20.544,0,0,1,3.3.12,1.318,1.318,0,0,1,.227.45,4.657,4.657,0,0,1,0,1.72h-0.113v0.8c-0.524,1.77-.4,4.06-0.909,5.83l-0.114,1.71h-0.114v0.8h-0.113v0.92c-0.517,1.77-.393,4.05-0.909,5.83l-0.114,1.71c-0.515,1.78-.393,4.06-0.909,5.84l-0.114,1.71q-1.022,7.14-2.045,14.29a1.261,1.261,0,0,0-.227.23h-0.228v0.11H625.726a35.221,35.221,0,0,1-5.568-.11,1.373,1.373,0,0,1-.227-0.46,4.577,4.577,0,0,1-.227-1.48H619.59v-0.81h-0.113v-0.91c-0.443-1.53-.353-3.5-0.8-5.03q-0.057-.855-0.113-1.71c-0.2-.7-0.254-1.71-0.455-2.41v-0.91H618v-0.8h-0.113v-0.91c-0.514-1.78-.394-4.06-0.909-5.84-0.038-.53-0.076-1.06-0.114-1.6h-0.114v-0.91c-0.209-.72-0.244-1.79-0.454-2.52q-0.228-2.115-.455-4.23c-0.355-1.23-.325-2.87-0.681-4.11-0.038-.57-0.076-1.14-0.114-1.72h-0.114v-0.8h-0.113v-0.91H614.7v-0.8a6.67,6.67,0,0,1-.227-2.74,1.261,1.261,0,0,0,.227-0.23h0.227v-0.12h5.114c-0.138-.81-0.127-1.98-0.341-2.74v-1.26H619.59v-1.26h-0.113v-0.91h-0.114v-0.57h-0.114v-0.35h-0.113v-0.34h-0.114v-0.23h-0.114v-0.23a2.478,2.478,0,0,1-.227-0.11c-0.038-.15-0.076-0.3-0.113-0.46-0.152-.11-0.3-0.23-0.455-0.34v-0.23c-0.151-.11-0.3-0.23-0.454-0.34v-0.12h-0.228c-0.075-.11-0.151-0.22-0.227-0.34h-0.227c-0.038-.08-0.076-0.15-0.114-0.23-0.151-.04-0.3-0.07-0.454-0.11v-0.12c-0.228-.07-0.455-0.15-0.682-0.23v-0.11h-0.341v-0.11h-0.455v-0.12H614.25c-1.524-.44-4.266.06-5.909-0.23a1.3,1.3,0,0,1-.227-0.45H608v-0.69h0.114v-0.23c0.343-.52,1.658-0.34,2.5-0.34,1.925,0,4.227-.14,5.568.46v0.11c0.228,0.08.455,0.15,0.682,0.23v0.11c0.227,0.08.455,0.16,0.682,0.23,0.038,0.08.076,0.15,0.114,0.23h0.227c0.038,0.08.076,0.15,0.113,0.23h0.228c0.075,0.11.151,0.23,0.227,0.34h0.227c0.114,0.15.227,0.31,0.341,0.46l0.682,0.57v0.23c0.113,0.08.227,0.15,0.341,0.23v0.23a2.358,2.358,0,0,1,.227.11v0.23h0.114v0.23H620.5v0.23h0.114v0.23h0.114v0.22h0.113v0.23h0.114c0.151,0.77.3,1.53,0.454,2.29v1.26h0.114v1.25h0.114v1.26h0.113v1.26h0.114v0.34Zm17.613-9.14a3.807,3.807,0,0,1,.909.11,1.373,1.373,0,0,1,.227.46c0.509,0.51-.376,1.56-1.136,1.26v-0.12h-0.228a1.318,1.318,0,0,1-.341-1.14h0.114v-0.23h0.114c0.038-.08.075-0.15,0.113-0.23h0.228v-0.11Zm-10.909,1.83a3.356,3.356,0,0,1,.909.11,1.373,1.373,0,0,1,.227.46c0.509,0.51-.375,1.56-1.136,1.26v-0.12H628.34a1.315,1.315,0,0,1-.341-1.14h0.114v-0.23h0.113c0.038-.08.076-0.15,0.114-0.23h0.227v-0.11Zm7.272,3.65a3.746,3.746,0,0,1,.909.12,1.268,1.268,0,0,1,.228.46c0.509,0.51-.376,1.56-1.137,1.25v-0.11h-0.227a1.315,1.315,0,0,1-.341-1.14h0.114v-0.23H635.5c0.037-.08.075-0.16,0.113-0.23h0.227v-0.12Zm-19.544,5.49,1.023,7.32h3.522q-0.34-3.66-.682-7.32h-3.863Zm5.682,0,0.681,7.32h22.385l1.023-7.32H621.977Zm-4.432,9.15q1.988,14.625,3.977,29.26h19.317q1.989-14.625,3.977-29.26h-21.93q0.852,9.825,1.7,19.66H624.7v1.26h0.113v1.26h0.114v1.25h0.114v1.15a6.305,6.305,0,0,1,.113,2.51,1.29,1.29,0,0,1-.454.23v0.11a1.334,1.334,0,0,1-1.137-.34v-0.23h-0.113v-0.91H623.34v-1.26h-0.114v-1.26h-0.113v-1.14H623v-1.26h-0.113v-1.25h-0.114v-1.26h-0.114v-1.26h-0.113v-1.14h-0.114v-1.37h-0.114v-1.26H622.2v-1.15H622.09v-1.25h-0.113v-1.26h-0.114v-1.26h-0.114v-1.26h-0.113V2262h-0.114v-1.15h-0.114v-1.25h-0.113v-1.26a9.886,9.886,0,0,1-.228-2.4h-3.522Zm11.022,3.66a3.356,3.356,0,0,1,.909.11,1.373,1.373,0,0,1,.227.46c0.509,0.51-.375,1.56-1.136,1.25v-0.11H628.34a1.315,1.315,0,0,1-.341-1.14h0.114v-0.23h0.113c0.038-.08.076-0.15,0.114-0.23h0.227v-0.11Zm9.091,3.65a3.76,3.76,0,0,1,.909.12,1.284,1.284,0,0,1,.227.46c0.509,0.51-.376,1.56-1.136,1.25v-0.11H637.43a1.315,1.315,0,0,1-.341-1.14H637.2v-0.23h0.114c0.038-.08.075-0.16,0.113-0.23h0.228v-0.12Zm-7.273,3.66a3.76,3.76,0,0,1,.909.12,1.283,1.283,0,0,1,.227.45c0.509,0.51-.375,1.57-1.136,1.26v-0.11h-0.227a1.326,1.326,0,0,1-.341-1.15h0.114v-0.22h0.113c0.038-.08.076-0.16,0.114-0.23h0.227v-0.12Zm5.454,5.49a4.382,4.382,0,0,1,.909.11,1.355,1.355,0,0,1,.228.46c0.509,0.51-.376,1.57-1.137,1.26v-0.12h-0.227a1.3,1.3,0,0,1-.341-1.14h0.114v-0.23H635.5c0.037-.07.075-0.15,0.113-0.23h0.227v-0.11Zm-7.272,5.49a4.4,4.4,0,0,1,.909.11,1.373,1.373,0,0,1,.227.46c0.509,0.51-.375,1.56-1.136,1.26v-0.12H628.34a1.315,1.315,0,0,1-.341-1.14h0.114v-0.23h0.113c0.038-.08.076-0.15,0.114-0.23h0.227v-0.11Z" transform="translate(-608 -2232.13)"/>
</svg>
